<svg xmlns="http://www.w3.org/2000/svg" viewBox="0 0 800 500" font-family="system-ui,-apple-system,sans-serif">
  <!-- Background -->
  <rect width="800" height="500" fill="#0A0F0A"/>
  <!-- Gradient orb -->
  <radialGradient id="orb1" cx="20%" cy="50%" r="55%">
    <stop offset="0%" stop-color="#10B981" stop-opacity="0.18"/>
    <stop offset="100%" stop-color="#0A0F0A" stop-opacity="0"/>
  </radialGradient>
  <rect width="800" height="500" fill="url(#orb1)"/>

  <!-- Left: Branding -->
  <text x="60" y="80" fill="#10B981" font-size="11" font-weight="700" letter-spacing="3" opacity="0.9">TRACKRPRO · iOS SWIFT</text>
  <text x="60" y="130" fill="white" font-size="36" font-weight="800" letter-spacing="-1">Train Hard.</text>
  <text x="60" y="172" fill="white" font-size="36" font-weight="800" letter-spacing="-1">Track <tspan fill="#10B981">Everything.</tspan></text>
  <text x="60" y="215" fill="#6B7280" font-size="13" font-weight="400">iOS · Swift · Stripe · StoreKit 2</text>

  <!-- Stat pills -->
  <rect x="60" y="245" width="100" height="34" rx="17" fill="#10B981" opacity="0.15"/>
  <text x="110" y="267" fill="#10B981" font-size="12" font-weight="700" text-anchor="middle">40k+ Users</text>
  <rect x="170" y="245" width="110" height="34" rx="17" fill="#1A2A1A"/>
  <text x="225" y="267" fill="#6EE7B7" font-size="12" font-weight="600" text-anchor="middle">8-mo Growth</text>
  <rect x="290" y="245" width="100" height="34" rx="17" fill="#1A2A1A"/>
  <text x="340" y="267" fill="#6EE7B7" font-size="12" font-weight="600" text-anchor="middle">4.8★ App Store</text>

  <!-- Phone mockup -->
  <rect x="468" y="20" width="200" height="410" rx="32" fill="#111A11" stroke="#1E3A1E" stroke-width="2"/>
  <!-- Notch -->
  <rect x="530" y="20" width="76" height="24" rx="12" fill="#0A0F0A"/>
  <!-- Screen -->
  <rect x="476" y="50" width="184" height="372" rx="8" fill="#0D150D"/>

  <!-- Status bar -->
  <text x="490" y="70" fill="white" font-size="9" font-weight="600">9:41</text>
  <rect x="628" y="62" width="24" height="10" rx="2" fill="#1E3A1E"/>
  <rect x="629" y="63" width="20" height="8" rx="1" fill="#10B981"/>

  <!-- Header -->
  <text x="490" y="96" fill="#6B7280" font-size="9">Today's Goal</text>
  <text x="490" y="110" fill="white" font-size="12" font-weight="700">Push Day 💪</text>
  <circle cx="646" cy="100" r="14" fill="#1A2A1A"/>
  <text x="646" y="105" fill="#10B981" font-size="10" text-anchor="middle">🔔</text>

  <!-- Ring progress -->
  <circle cx="568" cy="178" r="52" fill="none" stroke="#1E3A1E" stroke-width="10"/>
  <circle cx="568" cy="178" r="52" fill="none" stroke="#10B981" stroke-width="10" stroke-dasharray="262 327" stroke-linecap="round" transform="rotate(-90 568 178)"/>
  <circle cx="568" cy="178" r="40" fill="none" stroke="#1A2A1A" stroke-width="8"/>
  <circle cx="568" cy="178" r="40" fill="none" stroke="#3B82F6" stroke-width="8" stroke-dasharray="188 251" stroke-linecap="round" transform="rotate(-90 568 178)"/>
  <circle cx="568" cy="178" r="28" fill="none" stroke="#111A11" stroke-width="6"/>
  <circle cx="568" cy="178" r="28" fill="none" stroke="#F59E0B" stroke-width="6" stroke-dasharray="106 176" stroke-linecap="round" transform="rotate(-90 568 178)"/>
  <text x="568" y="174" fill="white" font-size="13" font-weight="900" text-anchor="middle">82%</text>
  <text x="568" y="186" fill="#6B7280" font-size="7" text-anchor="middle">Complete</text>

  <!-- Stats row -->
  <text x="490" y="248" fill="#6B7280" font-size="8">Calories</text>
  <text x="490" y="260" fill="white" font-size="11" font-weight="800">1,840</text>
  <text x="568" y="248" fill="#6B7280" font-size="8" text-anchor="middle">Steps</text>
  <text x="568" y="260" fill="white" font-size="11" font-weight="800" text-anchor="middle">8,240</text>
  <text x="644" y="248" fill="#6B7280" font-size="8" text-anchor="end">Active min</text>
  <text x="644" y="260" fill="white" font-size="11" font-weight="800" text-anchor="end">42</text>

  <!-- Workout list label -->
  <text x="490" y="280" fill="white" font-size="10" font-weight="700">Today's Workouts</text>

  <!-- Workout 1 -->
  <rect x="484" y="286" width="168" height="28" rx="8" fill="#1A2A1A"/>
  <text x="496" y="303" fill="#10B981" font-size="10">🏋</text>
  <text x="512" y="299" fill="white" font-size="9" font-weight="600">Bench Press</text>
  <text x="512" y="310" fill="#4B5563" font-size="7">4 sets · 8 reps · 80kg</text>
  <text x="644" y="303" fill="#10B981" font-size="8" font-weight="700" text-anchor="end">Done ✓</text>

  <!-- Workout 2 -->
  <rect x="484" y="320" width="168" height="28" rx="8" fill="#1A2A1A"/>
  <text x="496" y="337" fill="#3B82F6" font-size="10">🏃</text>
  <text x="512" y="333" fill="white" font-size="9" font-weight="600">Incline Run</text>
  <text x="512" y="344" fill="#4B5563" font-size="7">20 min · 6.5 km/h</text>
  <text x="644" y="337" fill="#F59E0B" font-size="8" font-weight="700" text-anchor="end">In Progress</text>

  <!-- Workout 3 -->
  <rect x="484" y="354" width="168" height="28" rx="8" fill="#152015"/>
  <text x="496" y="371" fill="#6B7280" font-size="10">🧘</text>
  <text x="512" y="367" fill="#6B7280" font-size="9" font-weight="600">Cool Down</text>
  <text x="512" y="378" fill="#374151" font-size="7">10 min · stretching</text>
  <text x="644" y="371" fill="#374151" font-size="8" font-weight="700" text-anchor="end">Upcoming</text>

  <!-- Subscription badge -->
  <rect x="484" y="390" width="168" height="28" rx="8" fill="#10B981" opacity="0.1" stroke="#10B981" stroke-width="1" stroke-opacity="0.3"/>
  <text x="568" y="400" fill="#10B981" font-size="7" font-weight="700" text-anchor="middle">PRO PLAN · $9.99/mo</text>
  <text x="568" y="412" fill="#6B7280" font-size="6" text-anchor="middle">via Stripe · Renews Jan 15 · StoreKit 2</text>

  <!-- Nav bar -->
  <rect x="476" y="406" width="184" height="16" rx="0" fill="#0D150D"/>
  <text x="508" y="418" fill="#10B981" font-size="9" text-anchor="middle">⊞</text>
  <text x="540" y="418" fill="#374151" font-size="9" text-anchor="middle">📊</text>
  <text x="572" y="418" fill="#374151" font-size="9" text-anchor="middle">🥗</text>
  <text x="604" y="418" fill="#374151" font-size="9" text-anchor="middle">👤</text>

  <!-- Second phone (partial) -->
  <rect x="390" y="60" width="90" height="180" rx="16" fill="#111A11" stroke="#1E3A1E" stroke-width="1" opacity="0.8"/>
  <rect x="396" y="80" width="78" height="152" rx="6" fill="#0D150D" opacity="0.9"/>
  <text x="435" y="104" fill="#10B981" font-size="7" text-anchor="middle" font-weight="700">SUBSCRIPTION</text>
  <rect x="403" y="110" width="64" height="30" rx="8" fill="#1A2A1A" opacity="0.8"/>
  <text x="435" y="124" fill="white" font-size="7" text-anchor="middle" font-weight="700">PRO</text>
  <text x="435" y="136" fill="#10B981" font-size="8" text-anchor="middle" font-weight="900">$9.99/mo</text>
  <rect x="403" y="148" width="64" height="14" rx="7" fill="#10B981" opacity="0.6"/>
  <text x="435" y="158" fill="white" font-size="6" text-anchor="middle">Free 7-day Trial</text>
  <text x="435" y="178" fill="#6B7280" font-size="6" text-anchor="middle">Billed via StoreKit 2</text>
  <text x="435" y="190" fill="#6B7280" font-size="6" text-anchor="middle">Stripe fallback web</text>
  <text x="435" y="214" fill="#4B5563" font-size="6" text-anchor="middle">Cancel anytime</text>
  <text x="435" y="226" fill="#4B5563" font-size="6" text-anchor="middle">40,000 subscribers</text>

  <!-- Bottom label -->
  <text x="60" y="460" fill="#1E3A1E" font-size="11">SOLYIO · iOS SWIFT · STRIPE BILLING · STOREKIT 2 · FREE TRIAL</text>
</svg>
